<svg width="23" height="23" viewBox="0 0 23 23" fill="none" xmlns="http://www.w3.org/2000/svg">
<path d="M1 22.2C0.7 22.2 0.500003 22.1 0.300003 21.9C0.100003 21.7 0 21.4 0 21.1L0.300003 16C0.300003 15.8 0.399991 15.5 0.599991 15.4L15.7 0.299988C15.9 0.0999878 16.1 0 16.4 0C16.7 0 16.9 0.0999878 17.1 0.299988L21.9 5.10004C22.1 5.30004 22.2 5.49999 22.2 5.79999C22.2 6.09999 22.1 6.3 21.9 6.5L6.8 21.6C6.6 21.8 6.4 21.9 6.2 21.9L1 22.2ZM2.2 16.5L2 20.1L5.59999 19.9L19.8 5.70001L16.4 2.29999L2.2 16.5Z" fill="black"/>
</svg>
